/* XPM */
static char *_51e968e517149d1ec63f8abca30a5dei9YEtxREvajGuCZ7[] = {
/* columns rows colors chars-per-pixel */
"32 32 15 1 ",
"  c black",
". c #FFF100",
"X c #FFF100",
"o c #FFF100",
"O c None",
"+ c #FFF100",
"@ c #FFF100",
"# c #FFF100",
"$ c #FFF100",
"% c #FFF100",
"& c #FFF100",
"* c #FFF100",
"= c #FFF100",
"- c #FFF100",
"; c #FFF100",
/* pixels */
"                                ",
"                                ",
"                                ",
"                                ",
"                                ",
"                                ",
"                                ",
"                                ",
"                                ",
"                                ",
"                                ",
"                                ",
"                                ",
"                                ",
"                                ",
"                                ",
"               .X               ",
"               oO               ",
"              +@@#              ",
"              $@@O              ",
"             +@@@@#             ",
"             $@@@@O             ",
"            %@@@@@@&            ",
"            *@@@@@@O            ",
"           =@@@@@@@@-           ",
"           $@@@@@@@@;           ",
"           @@@@@@@@@@           ",
"           @@@@@@@@@@           ",
"                                ",
"                                ",
"                                ",
"                                "
};
