/* XPM */
static char *_456dc00b9c347cafb112bb2cb24b5da2BbH2UIDKF7CQYBp[] = {
/* columns rows colors chars-per-pixel */
"32 32 28 1 ",
"  c black",
". c #FFF100",
"X c #FFF100",
"o c #FFF100",
"O c #FFF100",
"+ c #FFF100",
"@ c #FFF100",
"# c #FFF100",
"$ c #FFF100",
"% c #FFF100",
"& c #FFF100",
"* c #FFF100",
"= c #FFF100",
"- c #FFF100",
"; c #FFF100",
": c #FFF100",
"> c #FFF100",
", c #FFF100",
"< c #FFF100",
"1 c None",
"2 c #FFF100",
"3 c #FFF100",
"4 c #FFF100",
"5 c #FFF100",
"6 c #FFF100",
"7 c #FFF100",
"8 c #FFF100",
"9 c #FFF100",
/* pixels */
"                                ",
"                                ",
"                                ",
"                                ",
"                                ",
"                                ",
"                                ",
"                                ",
"                                ",
"                                ",
"                                ",
"                                ",
"                                ",
"                                ",
"                                ",
"                                ",
"              .XoO              ",
"             +@##$%             ",
"            &*####=-            ",
"           ;:######>,           ",
"         .<#########12          ",
"        +@############34        ",
"       56##############7+       ",
"      8:################69      ",
"        ################        ",
"        ################        ",
"           ##########           ",
"           ##########           ",
"                                ",
"                                ",
"                                ",
"                                "
};
